<svg width="512" height="512" viewBox="0 0 512 512" fill="none" xmlns="http://www.w3.org/2000/svg">
<rect width="512" height="512" rx="40" fill="#F4F4F2"/>
<path d="M200.758 165.371C159.622 165.371 143.015 191.169 143.015 211.859C143.015 275.971 252.88 258.602 246.237 313.007C244.193 329.099 226.053 343.147 204.335 343.147C170.864 343.147 147.103 319.904 134.072 293.85H132.284L124.619 322.969C144.548 338.039 163.455 348.256 193.86 348.256C230.141 348.256 257.479 326.8 257.479 296.405C257.479 232.548 147.869 249.406 152.724 198.321C154.257 182.996 168.82 168.692 194.115 168.692C214.3 168.692 232.951 181.719 247.515 215.946H249.303L256.968 189.381C241.894 177.632 220.432 165.371 200.758 165.371ZM362.569 167.926C362.569 167.926 362.569 169.458 362.569 169.969C371.001 174.311 378.666 187.593 378.666 198.577V314.54L262.924 167.926H237.119L253.471 188.87V316.072C253.471 327.056 245.806 340.593 237.119 344.935C237.119 345.446 237.119 346.723 237.119 346.723H271.611C271.611 346.723 271.611 345.446 271.611 344.935C262.924 340.593 255.259 327.056 255.259 316.072V191.169L376.877 346.723H380.71V198.577C380.71 187.593 388.375 174.311 396.806 169.969C396.806 169.458 396.806 167.926 396.806 167.926H362.569Z" fill="black"/>
</svg>
